<svg width="72" height="73" viewBox="0 0 414.72 300.76" class="prefix__absolute prefix__z-0" xmlns="http://www.w3.org/2000/svg"><path fill="#f00" d="M220.123-54.14l14 2 32 6c3 0 4 2 4 5v56l-1 34 1 30 1 6-7-2c-13-9-27-13-43-14-27-2-51 6-73 23a80 80 0 00-31 50c-4 22 1 43 15 61a94 94 0 00111 20c14-6 26-15 36-26s17-24 19-39l1-17v-173l11 4c18 12 35 25 50 41a197 197 0 0152 142v199c-39-1-77-6-104-38l-21 15c-15 10-32 16-49 21-17 4-35 3-52 2-21-1-41-6-60-15l-34-19c-8-5-14-11-21-18l-22-22a316 316 0 01-36-67c-5-11-6-23-8-35l-2-5a752 752 0 013-57c2-18 7-34 15-51 7-15 15-30 27-43 10-11 19-22 30-31 14-11 30-21 47-28 21-9 42-16 66-16l3-1zm-17 170c-26 12-38 34-44 62l-6-8c-6-16-5-32 4-47 7-11 19-17 32-19 10-2 19 0 27 4l3 2-3 2z"/></svg>