<?xml version="1.0" encoding="utf-8"?>
<svg viewBox="0 0 900 600" xmlns="http://www.w3.org/2000/svg">
  <path d="M0 313L11.5 294.2C23 275.3 46 237.7 69 220.7C92 203.7 115 207.3 138.2 221.3C161.3 235.3 184.7 259.7 207.8 263.3C231 267 254 250 277 238.3C300 226.7 323 220.3 346 239C369 257.7 392 301.3 415.2 305.8C438.3 310.3 461.7 275.7 484.8 270.2C508 264.7 531 288.3 554 283C577 277.7 600 243.3 623 233.2C646 223 669 237 692.2 250.8C715.3 264.7 738.7 278.3 761.8 288.5C785 298.7 808 305.3 831 312.2C854 319 877 326 888.5 329.5L900 333L900 0L888.5 0C877 0 854 0 831 0C808 0 785 0 761.8 0C738.7 0 715.3 0 692.2 0C669 0 646 0 623 0C600 0 577 0 554 0C531 0 508 0 484.8 0C461.7 0 438.3 0 415.2 0C392 0 369 0 346 0C323 0 300 0 277 0C254 0 231 0 207.8 0C184.7 0 161.3 0 138.2 0C115 0 92 0 69 0C46 0 23 0 11.5 0L0 0Z" fill="#1f1f1f"/>
  <path d="M0 283L11.5 279C23 275 46 267 69 254.8C92 242.7 115 226.3 138.2 229.3C161.3 232.3 184.7 254.7 207.8 253.8C231 253 254 229 277 211.3C300 193.7 323 182.3 346 190.7C369 199 392 227 415.2 247.8C438.3 268.7 461.7 282.3 484.8 288.3C508 294.3 531 292.7 554 271.8C577 251 600 211 623 196.3C646 181.7 669 192.3 692.2 195.7C715.3 199 738.7 195 761.8 195C785 195 808 199 831 212.3C854 225.7 877 248.3 888.5 259.7L900 271L900 0L888.5 0C877 0 854 0 831 0C808 0 785 0 761.8 0C738.7 0 715.3 0 692.2 0C669 0 646 0 623 0C600 0 577 0 554 0C531 0 508 0 484.8 0C461.7 0 438.3 0 415.2 0C392 0 369 0 346 0C323 0 300 0 277 0C254 0 231 0 207.8 0C184.7 0 161.3 0 138.2 0C115 0 92 0 69 0C46 0 23 0 11.5 0L0 0Z" style="fill: rgb(81, 37, 77);"/>
  <path d="M0 115L11.5 124.7C23 134.3 46 153.7 69 162.2C92 170.7 115 168.3 138.2 161.5C161.3 154.7 184.7 143.3 207.8 136.7C231 130 254 128 277 131.3C300 134.7 323 143.3 346 154.8C369 166.3 392 180.7 415.2 184C438.3 187.3 461.7 179.7 484.8 175.8C508 172 531 172 554 166.5C577 161 600 150 623 147.7C646 145.3 669 151.7 692.2 156.8C715.3 162 738.7 166 761.8 169.7C785 173.3 808 176.7 831 186.2C854 195.7 877 211.3 888.5 219.2L900 227L900 0L888.5 0C877 0 854 0 831 0C808 0 785 0 761.8 0C738.7 0 715.3 0 692.2 0C669 0 646 0 623 0C600 0 577 0 554 0C531 0 508 0 484.8 0C461.7 0 438.3 0 415.2 0C392 0 369 0 346 0C323 0 300 0 277 0C254 0 231 0 207.8 0C184.7 0 161.3 0 138.2 0C115 0 92 0 69 0C46 0 23 0 11.5 0L0 0Z" style="fill: rgb(133, 38, 64);"/>
  <path d="M0 118L11.5 120.5C23 123 46 128 69 137.2C92 146.3 115 159.7 138.2 160.3C161.3 161 184.7 149 207.8 147C231 145 254 153 277 143.2C300 133.3 323 105.7 346 99.5C369 93.3 392 108.7 415.2 120C438.3 131.3 461.7 138.7 484.8 135.5C508 132.3 531 118.7 554 107.2C577 95.7 600 86.3 623 80.7C646 75 669 73 692.2 88.7C715.3 104.3 738.7 137.7 761.8 152C785 166.3 808 161.7 831 161.8C854 162 877 167 888.5 169.5L900 172L900 0L888.5 0C877 0 854 0 831 0C808 0 785 0 761.8 0C738.7 0 715.3 0 692.2 0C669 0 646 0 623 0C600 0 577 0 554 0C531 0 508 0 484.8 0C461.7 0 438.3 0 415.2 0C392 0 369 0 346 0C323 0 300 0 277 0C254 0 231 0 207.8 0C184.7 0 161.3 0 138.2 0C115 0 92 0 69 0C46 0 23 0 11.5 0L0 0Z" style="fill: rgb(188, 68, 34);"/>
  <path d="M0 85L11.5 78C23 71 46 57 69 48.7C92 40.3 115 37.7 138.2 47.5C161.3 57.3 184.7 79.7 207.8 91.5C231 103.3 254 104.7 277 94.8C300 85 323 64 346 56.3C369 48.7 392 54.3 415.2 61.8C438.3 69.3 461.7 78.7 484.8 78.7C508 78.7 531 69.3 554 63.3C577 57.3 600 54.7 623 59.8C646 65 669 78 692.2 86.3C715.3 94.7 738.7 98.3 761.8 91.3C785 84.3 808 66.7 831 68C854 69.3 877 89.7 888.5 99.8L900 110L900 0L888.5 0C877 0 854 0 831 0C808 0 785 0 761.8 0C738.7 0 715.3 0 692.2 0C669 0 646 0 623 0C600 0 577 0 554 0C531 0 508 0 484.8 0C461.7 0 438.3 0 415.2 0C392 0 369 0 346 0C323 0 300 0 277 0C254 0 231 0 207.8 0C184.7 0 161.3 0 138.2 0C115 0 92 0 69 0C46 0 23 0 11.5 0L0 0Z" fill="#f7be0f"/>
</svg>