<svg id="visual" viewBox="0 0 900 600" width="900" height="600" xmlns="http://www.w3.org/2000/svg" xmlns:xlink="http://www.w3.org/1999/xlink" version="1.1"><path d="M0 285L11.5 303.8C23 322.7 46 360.3 69 377.3C92 394.3 115 390.7 138.2 376.7C161.3 362.7 184.7 338.3 207.8 334.7C231 331 254 348 277 359.7C300 371.3 323 377.7 346 359C369 340.3 392 296.7 415.2 292.2C438.3 287.7 461.7 322.3 484.8 327.8C508 333.3 531 309.7 554 315C577 320.3 600 354.7 623 364.8C646 375 669 361 692.2 347.2C715.3 333.3 738.7 319.7 761.8 309.5C785 299.3 808 292.7 831 285.8C854 279 877 272 888.5 268.5L900 265L900 601L888.5 601C877 601 854 601 831 601C808 601 785 601 761.8 601C738.7 601 715.3 601 692.2 601C669 601 646 601 623 601C600 601 577 601 554 601C531 601 508 601 484.8 601C461.7 601 438.3 601 415.2 601C392 601 369 601 346 601C323 601 300 601 277 601C254 601 231 601 207.8 601C184.7 601 161.3 601 138.2 601C115 601 92 601 69 601C46 601 23 601 11.5 601L0 601Z" fill="#1f1f1f"></path><path d="M0 315L11.5 319C23 323 46 331 69 343.2C92 355.3 115 371.7 138.2 368.7C161.3 365.7 184.7 343.3 207.8 344.2C231 345 254 369 277 386.7C300 404.3 323 415.7 346 407.3C369 399 392 371 415.2 350.2C438.3 329.3 461.7 315.7 484.8 309.7C508 303.7 531 305.3 554 326.2C577 347 600 387 623 401.7C646 416.3 669 405.7 692.2 402.3C715.3 399 738.7 403 761.8 403C785 403 808 399 831 385.7C854 372.3 877 349.7 888.5 338.3L900 327L900 601L888.5 601C877 601 854 601 831 601C808 601 785 601 761.8 601C738.7 601 715.3 601 692.2 601C669 601 646 601 623 601C600 601 577 601 554 601C531 601 508 601 484.8 601C461.7 601 438.3 601 415.2 601C392 601 369 601 346 601C323 601 300 601 277 601C254 601 231 601 207.8 601C184.7 601 161.3 601 138.2 601C115 601 92 601 69 601C46 601 23 601 11.5 601L0 601Z" fill="#514225"></path><path d="M0 483L11.5 473.3C23 463.7 46 444.3 69 435.8C92 427.3 115 429.7 138.2 436.5C161.3 443.3 184.7 454.7 207.8 461.3C231 468 254 470 277 466.7C300 463.3 323 454.7 346 443.2C369 431.7 392 417.3 415.2 414C438.3 410.7 461.7 418.3 484.8 422.2C508 426 531 426 554 431.5C577 437 600 448 623 450.3C646 452.7 669 446.3 692.2 441.2C715.3 436 738.7 432 761.8 428.3C785 424.7 808 421.3 831 411.8C854 402.3 877 386.7 888.5 378.8L900 371L900 601L888.5 601C877 601 854 601 831 601C808 601 785 601 761.8 601C738.7 601 715.3 601 692.2 601C669 601 646 601 623 601C600 601 577 601 554 601C531 601 508 601 484.8 601C461.7 601 438.3 601 415.2 601C392 601 369 601 346 601C323 601 300 601 277 601C254 601 231 601 207.8 601C184.7 601 161.3 601 138.2 601C115 601 92 601 69 601C46 601 23 601 11.5 601L0 601Z" fill="#856926"></path><path d="M0 480L11.5 477.5C23 475 46 470 69 460.8C92 451.7 115 438.3 138.2 437.7C161.3 437 184.7 449 207.8 451C231 453 254 445 277 454.8C300 464.7 323 492.3 346 498.5C369 504.7 392 489.3 415.2 478C438.3 466.7 461.7 459.3 484.8 462.5C508 465.7 531 479.3 554 490.8C577 502.3 600 511.7 623 517.3C646 523 669 525 692.2 509.3C715.3 493.7 738.7 460.3 761.8 446C785 431.7 808 436.3 831 436.2C854 436 877 431 888.5 428.5L900 426L900 601L888.5 601C877 601 854 601 831 601C808 601 785 601 761.8 601C738.7 601 715.3 601 692.2 601C669 601 646 601 623 601C600 601 577 601 554 601C531 601 508 601 484.8 601C461.7 601 438.3 601 415.2 601C392 601 369 601 346 601C323 601 300 601 277 601C254 601 231 601 207.8 601C184.7 601 161.3 601 138.2 601C115 601 92 601 69 601C46 601 23 601 11.5 601L0 601Z" fill="#bc9222"></path><path d="M0 513L11.5 520C23 527 46 541 69 549.3C92 557.7 115 560.3 138.2 550.5C161.3 540.7 184.7 518.3 207.8 506.5C231 494.7 254 493.3 277 503.2C300 513 323 534 346 541.7C369 549.3 392 543.7 415.2 536.2C438.3 528.7 461.7 519.3 484.8 519.3C508 519.3 531 528.7 554 534.7C577 540.7 600 543.3 623 538.2C646 533 669 520 692.2 511.7C715.3 503.3 738.7 499.7 761.8 506.7C785 513.7 808 531.3 831 530C854 528.7 877 508.3 888.5 498.2L900 488L900 601L888.5 601C877 601 854 601 831 601C808 601 785 601 761.8 601C738.7 601 715.3 601 692.2 601C669 601 646 601 623 601C600 601 577 601 554 601C531 601 508 601 484.8 601C461.7 601 438.3 601 415.2 601C392 601 369 601 346 601C323 601 300 601 277 601C254 601 231 601 207.8 601C184.7 601 161.3 601 138.2 601C115 601 92 601 69 601C46 601 23 601 11.5 601L0 601Z" fill="#f7be0f"></path></svg>